<svg width="60" height="60" viewBox="0 0 60 60" fill="none" xmlns="http://www.w3.org/2000/svg">
<circle cx="30" cy="30" r="30" fill="#C62A0E"/>
<path d="M39.74 29.07C39.69 28.56 39.26 28.18 38.75 28.18H31.2C30.65 28.18 30.2 28.63 30.2 29.18V30.89C30.2 31.44 30.65 31.89 31.2 31.89H35.71C35.6 32.81 35 34.2 33.67 35.13C32.82 35.72 31.69 36.13 30.2 36.13C30.13 36.13 30.07 36.13 30 36.12C27.45 36.04 25.29 34.33 24.51 31.98C24.3 31.35 24.18 30.69 24.18 30C24.18 29.31 24.3 28.64 24.5 28.02C24.56 27.84 24.63 27.66 24.71 27.48C25.63 25.41 27.64 23.95 30 23.88C30.06 23.87 30.13 23.87 30.2 23.87C31.63 23.87 32.7 24.34 33.45 24.86C33.84 25.13 34.36 25.07 34.7 24.74L36.09 23.38C36.53 22.95 36.49 22.22 35.99 21.86C34.4 20.69 32.46 20 30.2 20C30.13 20 30.07 20 30 20.01C26.17 20.08 22.88 22.3 21.27 25.51C20.59 26.87 20.2 28.39 20.2 30C20.2 31.61 20.59 33.13 21.27 34.49H21.28C22.89 37.7 26.18 39.92 30 39.99C30.07 40 30.13 40 30.2 40C32.9 40 35.17 39.11 36.82 37.58C38.71 35.83 39.8 33.27 39.8 30.22C39.8 29.79 39.78 29.42 39.74 29.07Z" fill="white"/>
</svg>
